<svg width="48" height="48" viewBox="0 0 48 48" fill="none" xmlns="http://www.w3.org/2000/svg">
<path fill-rule="evenodd" clip-rule="evenodd" d="M9.51665 13.9636H9.31767C8.54138 13.9636 7.82662 14.2547 7.28422 14.7391C6.74182 15.223 6.37135 15.8998 6.2832 16.6713L6.09949 18.2775C6.072 18.5171 6.24436 18.7335 6.48349 18.761C6.72262 18.7881 6.93905 18.6161 6.96655 18.377L7.15025 16.7703C7.21309 16.2196 7.47753 15.7361 7.86545 15.3901C8.25294 15.0445 8.76305 14.8364 9.31767 14.8364H10.0691L20.6073 31.4815C20.7177 31.656 20.8023 31.8445 20.8591 32.0409C20.9101 32.2172 20.9389 32.3996 20.9446 32.5846C20.9232 32.592 20.9018 32.5999 20.8809 32.6086C20.7233 32.674 20.5789 32.7696 20.4563 32.8927C20.3332 33.0153 20.2377 33.1597 20.1722 33.3172C20.1072 33.4748 20.0727 33.6445 20.0727 33.8182V34.0364C18.1462 34.0364 16.4007 34.8183 15.1366 36.082C13.8729 37.3462 13.0909 39.0916 13.0909 41.0182C13.0909 41.8163 13.2249 42.583 13.4723 43.2977C13.3553 43.2039 13.2419 43.1057 13.1324 43.0032C12.6833 42.5808 12.3002 42.0829 12.0044 41.5235L7.51898 33.0519C6.9216 31.9235 6.50225 30.7183 6.26793 29.4781C6.03404 28.2375 5.98516 26.9625 6.13047 25.694L6.76713 20.1225C6.79418 19.8829 6.62225 19.6665 6.38313 19.639C6.14356 19.6119 5.92713 19.7839 5.90007 20.023L5.26298 25.5949C5.10807 26.9507 5.16 28.3139 5.41047 29.64C5.66051 30.9657 6.10909 32.2543 6.74793 33.4604L11.2329 41.9319C11.5745 42.5773 12.0161 43.1516 12.535 43.639C13.0237 44.0985 13.5801 44.4799 14.1853 44.7705C14.4589 45.199 14.7788 45.5961 15.1366 45.9543C16.4007 47.218 18.1462 48 20.0727 48C21.9993 48 23.7447 47.218 25.0089 45.9543C25.0534 45.9094 25.0975 45.864 25.1411 45.8182H34.9091C35.15 45.8182 35.3455 45.6227 35.3455 45.3818C35.3455 45.1409 35.15 44.9455 34.9091 44.9455H25.8445C26.6081 43.8262 27.0545 42.4739 27.0545 41.0182L27.0393 40.553C27.0236 40.3126 26.8154 40.1306 26.575 40.1463C26.335 40.162 26.1526 40.3702 26.1683 40.6106L26.1818 41.0182C26.1818 42.7039 25.4976 44.2311 24.3914 45.3369C23.2857 46.4431 21.7584 47.1273 20.0727 47.1273C18.3871 47.1273 16.8598 46.4431 15.754 45.3369C14.6479 44.2311 13.9636 42.7039 13.9636 41.0182C13.9636 39.3325 14.6479 37.8052 15.754 36.6995C16.8598 35.5933 18.3871 34.9091 20.0727 34.9091C21.3857 34.9091 22.6028 35.3241 23.599 36.0301C24.6196 36.7536 25.409 37.7817 25.8336 38.9821C25.9143 39.209 26.1635 39.3281 26.3908 39.2479C26.6177 39.1676 26.7369 38.918 26.6566 38.6906C26.273 37.6067 25.6289 36.6454 24.7999 35.8817C25.8406 36.5324 26.9773 37.1773 28.1175 37.7079C29.2111 38.2167 30.3089 38.6199 31.3313 38.8276C32.232 39.0105 33.3556 39.2208 34.5823 39.4407C35.8634 39.6707 37.2576 39.9111 38.6278 40.1428C37.9405 40.9732 37.5273 42.0388 37.5273 43.2C37.5273 43.8157 37.6433 44.4044 37.855 44.9455H36.6545C36.4137 44.9455 36.2182 45.1409 36.2182 45.3818C36.2182 45.6227 36.4137 45.8182 36.6545 45.8182H38.3044C38.4873 46.0983 38.6985 46.358 38.9337 46.5936C39.8025 47.4624 41.0025 48 42.3273 48C43.6521 48 44.8521 47.4624 45.7209 46.5936C45.9561 46.358 46.1673 46.0983 46.3501 45.8182H46.6909C46.8977 45.8182 47.0985 45.7693 47.2787 45.679C47.4585 45.5887 47.6177 45.4564 47.7412 45.2906C47.8647 45.1244 47.9455 44.9341 47.9804 44.736C48.0153 44.5375 48.0044 44.3311 47.9446 44.1329L47.5811 42.4673C47.4873 42.1549 47.3463 41.8652 47.1665 41.6055C47.0012 41.3673 46.8035 41.1543 46.5796 40.9728C46.3601 40.5552 46.0813 40.1738 45.754 39.84C45.5852 39.6681 45.3089 39.6655 45.1366 39.8339C44.9647 40.0023 44.962 40.279 45.1309 40.4509C45.4844 40.8118 45.7693 41.2403 45.9639 41.7151C46.1511 42.1732 46.2545 42.6746 46.2545 43.2C46.2545 44.2839 45.8147 45.2653 45.1039 45.9766C44.3926 46.6874 43.4112 47.1273 42.3273 47.1273C41.2433 47.1273 40.262 46.6874 39.5507 45.9766C38.8399 45.2653 38.4 44.2839 38.4 43.2C38.4 42.1161 38.8399 41.1347 39.5507 40.4234C40.262 39.7126 41.2433 39.2727 42.3273 39.2727C42.6292 39.2727 42.9238 39.3068 43.2061 39.3718C43.4976 39.4381 43.7769 39.5376 44.0396 39.665C44.2564 39.7706 44.5174 39.6799 44.623 39.4634C44.7281 39.247 44.6378 38.9856 44.4209 38.8804C44.0993 38.7238 43.7577 38.6025 43.4012 38.5209C43.0556 38.4419 42.6964 38.4 42.3273 38.4C41.2303 38.4 40.2183 38.7687 39.4097 39.3892L39.2727 39.3661V36.6323C39.3412 36.6188 39.408 36.5983 39.4721 36.5716C39.6031 36.5171 39.7235 36.4372 39.826 36.3351C39.9281 36.2326 40.008 36.1121 40.0625 35.9812C40.1166 35.8499 40.1455 35.7085 40.1455 35.5636C40.1455 35.4188 40.1166 35.2774 40.0625 35.146C40.0276 35.0623 39.9823 34.9824 39.9273 34.9091C39.9823 34.8358 40.0276 34.7559 40.0625 34.6721C40.1166 34.5408 40.1455 34.3994 40.1455 34.2545C40.1455 34.1808 40.138 34.1075 40.1232 34.0364H40.1455C40.3191 34.0364 40.4889 34.0019 40.6464 33.9369C40.8039 33.8714 40.9484 33.7759 41.071 33.6528C41.194 33.5302 41.2896 33.3857 41.3551 33.2282C41.4201 33.0711 41.4545 32.9009 41.4545 32.7273V32.4847C41.4545 31.7066 41.1617 30.9901 40.6756 30.4473C40.1895 29.9044 39.5101 29.5344 38.7364 29.4489C38.7351 29.4489 38.7343 29.4484 38.7329 29.4484C37.7996 29.3529 36.7047 29.2324 35.6854 29.102C34.9449 29.0073 34.2445 28.9069 33.6759 28.8065C33.048 28.6957 32.2577 28.4985 31.4308 28.2676C30.271 27.9439 29.04 27.5533 28.0783 27.2365C28.0765 27.2361 28.0752 27.2356 28.0739 27.2352C27.8047 27.1497 27.5228 27.1318 27.2518 27.1785C26.9812 27.2247 26.7212 27.3347 26.4956 27.5049C26.27 27.6751 26.0924 27.8945 25.9737 28.1424C25.8545 28.3903 25.7943 28.666 25.8026 28.9484L25.913 32.7657C25.9235 33.1196 26.0736 33.4372 26.3097 33.6663C26.5135 33.8644 26.7809 33.9962 27.0781 34.0285C27.0624 34.1023 27.0545 34.1782 27.0545 34.2545C27.0545 34.3994 27.0833 34.5408 27.1375 34.6721C27.1724 34.7559 27.2177 34.8358 27.2727 34.9091C27.2177 34.9824 27.1724 35.0623 27.1375 35.146C27.0833 35.2774 27.0545 35.4218 27.0545 35.5636C27.0545 35.8647 27.1767 36.1375 27.374 36.3351C27.3975 36.3583 27.422 36.3809 27.4473 36.4019C26.3878 35.8464 25.3571 35.2176 24.4364 34.6119V33.8182C24.4364 33.6445 24.4019 33.4748 24.3369 33.3172C24.2714 33.1597 24.1759 33.0153 24.0528 32.8927C23.9302 32.7696 23.7857 32.674 23.6282 32.6086C23.6068 32.5999 23.585 32.5916 23.5632 32.5837C23.5575 32.1513 23.4929 31.7236 23.3738 31.3117C23.2486 30.8797 23.0623 30.4652 22.8192 30.0812C22.8192 30.0812 22.1332 28.9977 21.0319 27.2575C20.9027 27.0541 20.633 26.9935 20.4297 27.1222C20.2259 27.2509 20.1657 27.521 20.2944 27.7244C21.3962 29.4646 22.0817 30.5476 22.0817 30.5476C22.2807 30.8618 22.433 31.2013 22.5356 31.5548C22.6185 31.8401 22.6687 32.2006 22.6848 32.5091H21.8103C21.7955 32.28 21.7575 32.0047 21.6973 31.7978C21.6175 31.5229 21.4992 31.2589 21.3443 31.0145L3.61964 3.01702C3.36873 2.62124 3.02575 2.30313 2.62778 2.08451C2.23025 1.86545 1.76291 1.74545 1.30909 1.74545C1.06822 1.74545 0.872727 1.54996 0.872727 1.30909C0.872727 1.06822 1.06822 0.872727 1.30909 0.872727C1.92742 0.872727 2.52393 1.03113 3.04844 1.32C3.57338 1.60887 4.02633 2.02822 4.35665 2.55011C4.35665 2.55011 14.1652 18.0428 19.1891 25.9789C19.3183 26.1823 19.5879 26.2429 19.7913 26.1142C19.9951 25.9855 20.0553 25.7153 19.9265 25.512C14.9027 17.5763 5.09411 2.08364 5.09411 2.08364C4.68349 1.43476 4.12102 0.914182 3.46953 0.555491C2.81804 0.196364 2.07709 0 1.30909 0C0.586909 0 0 0.586473 0 1.30909C0 2.03171 0.586473 2.61818 1.30909 2.61818C1.61804 2.61818 1.93615 2.69978 2.20713 2.84902C2.47767 2.99782 2.71156 3.21425 2.88218 3.48393L9.51665 13.9636ZM42.3273 41.1273C41.7552 41.1273 41.2372 41.3594 40.862 41.7347C40.4867 42.11 40.2545 42.6279 40.2545 43.2C40.2545 43.7721 40.4867 44.29 40.862 44.6653C41.2372 45.0406 41.7552 45.2727 42.3273 45.2727C42.8993 45.2727 43.4173 45.0406 43.7926 44.6653C44.1679 44.29 44.4 43.7721 44.4 43.2C44.4 42.6279 44.1679 42.11 43.7926 41.7347C43.4173 41.3594 42.8993 41.1273 42.3273 41.1273ZM47.0841 43.8471C47.0326 44.2289 46.9357 44.5972 46.7996 44.9455H46.827C46.896 44.9455 47.0439 44.825 47.0854 44.7696C47.1264 44.7142 47.1535 44.6509 47.1648 44.5846C47.2071 44.345 47.0841 43.8471 47.0841 43.8471ZM42.3273 42C42.6585 42 42.9583 42.1344 43.1756 42.3517C43.3929 42.569 43.5273 42.8688 43.5273 43.2C43.5273 43.5312 43.3929 43.831 43.1756 44.0483C42.9583 44.2656 42.6585 44.4 42.3273 44.4C41.9961 44.4 41.6963 44.2656 41.479 44.0483C41.2617 43.831 41.1273 43.5312 41.1273 43.2C41.1273 42.8688 41.2617 42.569 41.479 42.3517C41.6963 42.1344 41.9961 42 42.3273 42ZM20.0727 38.1273C19.2751 38.1273 18.552 38.4511 18.0288 38.9743C17.5056 39.4975 17.1818 40.2205 17.1818 41.0182C17.1818 41.8159 17.5056 42.5389 18.0288 43.0621C18.552 43.5853 19.2751 43.9091 20.0727 43.9091C20.8704 43.9091 21.5935 43.5853 22.1167 43.0621C22.6399 42.5389 22.9636 41.8159 22.9636 41.0182C22.9636 40.2205 22.6399 39.4975 22.1167 38.9743C21.5935 38.4511 20.8704 38.1273 20.0727 38.1273ZM20.0727 39C20.6295 39 21.134 39.226 21.4996 39.5913C21.8649 39.9569 22.0909 40.4614 22.0909 41.0182C22.0909 41.575 21.8649 42.0794 21.4996 42.4451C21.134 42.8103 20.6295 43.0364 20.0727 43.0364C19.5159 43.0364 19.0115 42.8103 18.6458 42.4451C18.2806 42.0794 18.0545 41.575 18.0545 41.0182C18.0545 40.4614 18.2806 39.9569 18.6458 39.5913C19.0115 39.226 19.5159 39 20.0727 39ZM38.4 39.2191V36.6545H37.9636C37.7228 36.6545 37.5273 36.4591 37.5273 36.2182C37.5273 35.9773 37.7228 35.7818 37.9636 35.7818H39.0545C39.0833 35.7818 39.1117 35.7761 39.1379 35.7652C39.1641 35.7543 39.1885 35.7382 39.209 35.7181C39.2291 35.6976 39.2452 35.6732 39.2561 35.647C39.2671 35.6208 39.2727 35.5924 39.2727 35.5636C39.2727 35.5348 39.2671 35.5065 39.2561 35.4803C39.2452 35.4541 39.2291 35.4297 39.209 35.4092C39.1885 35.3891 39.1641 35.3729 39.1379 35.362C39.1117 35.3511 39.0833 35.3455 39.0545 35.3455H31.4182C31.1773 35.3455 30.9818 35.15 30.9818 34.9091C30.9818 34.6682 31.1773 34.4727 31.4182 34.4727H39.0545C39.0833 34.4727 39.1117 34.4671 39.1379 34.4561C39.1641 34.4452 39.1885 34.4291 39.209 34.409C39.2291 34.3885 39.2452 34.3641 39.2561 34.3379C39.2671 34.3117 39.2727 34.2833 39.2727 34.2545C39.2727 34.2257 39.2671 34.1974 39.2561 34.1712C39.2452 34.145 39.2291 34.1206 39.209 34.1001C39.1885 34.08 39.1641 34.0639 39.1379 34.0529C39.1117 34.042 39.0833 34.0364 39.0545 34.0364H36.2182C35.9773 34.0364 35.7818 33.8409 35.7818 33.6C35.7818 33.3591 35.9773 33.1636 36.2182 33.1636H40.1455C40.2035 33.1636 40.2598 33.1523 40.3126 33.1305C40.3649 33.1087 40.4129 33.0768 40.454 33.0358C40.495 32.9948 40.5268 32.9468 40.5487 32.8944C40.5705 32.842 40.5818 32.7853 40.5818 32.7273V32.4847C40.5818 31.9287 40.3728 31.4173 40.0255 31.0294C39.6785 30.6419 39.1937 30.3779 38.6417 30.3164C37.7023 30.2199 36.6004 30.0991 35.5745 29.9677C34.8192 29.8708 34.1044 29.7683 33.5241 29.6662C32.873 29.551 32.0535 29.3476 31.1961 29.1081C30.0244 28.7808 28.7808 28.3868 27.8081 28.0665C27.6742 28.0241 27.5337 28.0154 27.3988 28.0385C27.2636 28.0617 27.1335 28.1167 27.0209 28.2017C26.9084 28.2868 26.8198 28.3964 26.7604 28.5203C26.7007 28.6438 26.6705 28.7817 26.6749 28.9226L26.7853 32.7399C26.7888 32.8582 26.839 32.9638 26.9175 33.0401C26.9961 33.1165 27.1034 33.1636 27.2217 33.1636H34.4727C34.7136 33.1636 34.9091 33.3591 34.9091 33.6C34.9091 33.8409 34.7136 34.0364 34.4727 34.0364H28.1455C28.1167 34.0364 28.0883 34.042 28.0621 34.0529C28.0359 34.0639 28.0115 34.08 27.991 34.1001C27.9709 34.1206 27.9548 34.145 27.9439 34.1712C27.9329 34.1974 27.9273 34.2257 27.9273 34.2545C27.9273 34.2833 27.9329 34.3117 27.9439 34.3379C27.9548 34.3641 27.9709 34.3885 27.991 34.409C28.0115 34.4291 28.0359 34.4452 28.0621 34.4561C28.0883 34.4671 28.1167 34.4727 28.1455 34.4727H29.6727C29.9136 34.4727 30.1091 34.6682 30.1091 34.9091C30.1091 35.15 29.9136 35.3455 29.6727 35.3455H28.1455C28.1167 35.3455 28.0883 35.3511 28.0621 35.362C28.0359 35.3729 28.0115 35.3891 27.991 35.4092C27.9709 35.4297 27.9548 35.4541 27.9439 35.4803C27.9329 35.5065 27.9273 35.5353 27.9273 35.5636C27.9273 35.6239 27.9517 35.6784 27.991 35.7181C28.0307 35.7574 28.0852 35.7818 28.1455 35.7818H36.2182C36.459 35.7818 36.6545 35.9773 36.6545 36.2182C36.6545 36.4591 36.459 36.6545 36.2182 36.6545H28.8V37.0595C29.7229 37.471 30.6423 37.7969 31.505 37.9724C32.4004 38.1543 33.5171 38.3629 34.7363 38.5815C35.8983 38.7901 37.1537 39.0074 38.4 39.2191ZM27.8727 36.6201L27.9273 36.6476V36.6327L27.8727 36.6201ZM23.5636 34.9715V33.8182C23.5636 33.7601 23.5523 33.7039 23.5305 33.6511C23.5087 33.5987 23.4768 33.5507 23.4358 33.5097C23.3948 33.4687 23.3468 33.4368 23.2944 33.415C23.242 33.3932 23.1853 33.3818 23.1273 33.3818H21.3818C21.3238 33.3818 21.2671 33.3932 21.2147 33.415C21.1623 33.4368 21.1143 33.4687 21.0733 33.5097C21.0323 33.5507 21.0004 33.5987 20.9786 33.6511C20.9568 33.7039 20.9455 33.7601 20.9455 33.8182V34.0905C21.8893 34.2083 22.7751 34.5151 23.5636 34.9715Z" fill="white"/>
</svg>
